PathFileType	4	(X/Y/Z)	C:/Users/opensim2020/Desktop/walking_exp_matlab/subject03_walking13_straight_02.trc	
DataRate	CameraRate	NumFrames	NumMarkers	Units	OrigDataRate	OrigDataStartFrame	OrigNumFrames	
100.00	100.00	4	46	mm	100.00	1103	193	
Frame#	Time	LFHD			RFHD			LBHD			RBHD			C7			T10			CLAV			STRN			RBAK			LSHO			LUPA			LELB			LFRM			LWRA			LWRB			LFIN			RSHO			RUPA			RELB			RFRM			RWRA			RWRB			RFIN			LASI			RASI			LPSI			RPSI			LTHI			LKNE			LTIB			LANK			LHEE			LTOE			RTHI			RKNE			RTIB			RANK			RHEE			RTOE			*39			*40			*41			*42			*43			*44			*45			
		X1	Y1	Z1	X2	Y2	Z2	X3	Y3	Z3	X4	Y4	Z4	X5	Y5	Z5	X6	Y6	Z6	X7	Y7	Z7	X8	Y8	Z8	X9	Y9	Z9	X10	Y10	Z10	X11	Y11	Z11	X12	Y12	Z12	X13	Y13	Z13	X14	Y14	Z14	X15	Y15	Z15	X16	Y16	Z16	X17	Y17	Z17	X18	Y18	Z18	X19	Y19	Z19	X20	Y20	Z20	X21	Y21	Z21	X22	Y22	Z22	X23	Y23	Z23	X24	Y24	Z24	X25	Y25	Z25	X26	Y26	Z26	X27	Y27	Z27	X28	Y28	Z28	X29	Y29	Z29	X30	Y30	Z30	X31	Y31	Z31	X32	Y32	Z32	X33	Y33	Z33	X34	Y34	Z34	X35	Y35	Z35	X36	Y36	Z36	X37	Y37	Z37	X38	Y38	Z38	X39	Y39	Z39	X40	Y40	Z40	X41	Y41	Z41	X42	Y42	Z42	X43	Y43	Z43	X44	Y44	Z44	X45	Y45	Z45	X46	Y46	Z46	

25	0.240	1447.82764	1049.60974	1602.30798	1316.15930	1068.54700	1602.57849	1463.31262	1176.20081	1556.26929	1332.62732	1189.62109	1556.00330	1405.80396	1211.85132	1395.07593	1410.89124	1248.70642	1083.19263	1399.36096	1091.69434	1317.08386	1401.96143	1047.63000	1151.80664	1312.47864	1272.55505	1219.81165	1558.97278	1131.08484	1353.30872	1620.95520	1162.18457	1153.98242	1629.58948	1176.15894	1030.85046	1631.81909	1181.12256	900.13287	1604.88171	1189.14404	778.53827	1652.51599	1217.38843	792.14758	1644.13049	1229.50696	708.02716	1242.47302	1145.53870	1340.59924	1168.89185	1116.18994	1123.17139	1160.19336	1075.12781	1018.70544	1173.69763	1007.16711	902.08069	1223.64697	945.55475	833.53125	1179.86340	966.84552	810.28979	1201.21057	915.62671	759.87500	1517.47632	1071.78247	926.21472	1281.23315	1099.01746	913.49176	1488.80823	1240.20044	938.52039	1339.26184	1253.26538	944.70154	1587.73291	1051.78528	632.17480	1541.83850	977.24438	475.18457	1557.55444	951.59381	284.65356	1532.26025	890.15485	80.10788	1496.86694	918.78613	31.94807	1498.21423	738.27057	85.91288	1262.29163	1204.33118	626.31494	1307.65271	1234.79407	450.80722	1315.23804	1342.17688	287.51740	1374.20215	1445.32019	98.36658	1425.77563	1495.76514	80.65988	1389.43286	1315.85327	35.71785				1411.43823	1139.24963	1659.69934															 
26	0.250	1449.07239	1036.33472	1601.60425	1317.49438	1055.55920	1602.16565	1464.73730	1162.88525	1555.39978	1334.00928	1176.51050	1555.31628	1407.55042	1198.41443	1394.16724	1411.96619	1234.73376	1082.23645	1400.31750	1078.25769	1316.51904	1402.54053	1033.67224	1151.58411	1314.46057	1259.33472	1218.82178	1560.24133	1116.08936	1352.36804	1622.09912	1148.31873	1153.16028	1630.35632	1163.68042	1030.12231	1632.14661	1171.63892	899.50586	1605.42371	1184.06079	779.07941	1653.68701	1209.55188	792.44714	1642.84009	1229.79248	708.88287	1243.72766	1133.20850	1340.11792	1170.30701	1104.40027	1122.53870	1161.40491	1063.53638	1018.04700	1174.73059	995.10052	901.67474	1224.38403	932.82275	833.56915	1180.87390	954.50275	810.03265	1201.97522	902.76160	759.94086	1518.01270	1056.89233	926.16425	1281.83105	1085.38098	912.44543	1489.92639	1225.56787	938.02948	1340.47534	1239.17371	943.50537	1586.83081	1035.74646	632.08032	1540.80640	962.63312	475.39285	1555.83472	939.41895	283.29349	1529.72400	881.60815	77.95961	1493.59045	910.41943	30.01237	1496.01477	729.52441	82.51315	1262.84631	1191.74316	625.80505	1307.43604	1222.85498	450.21902	1314.83508	1334.20959	289.14609	1373.39941	1442.40808	102.86161	1424.88562	1493.57349	87.05579	1389.36890	1315.32373	35.51904				1413.27087	1126.16528	1659.08862															 
27	0.260	1450.30957	1023.02142	1601.17297	1318.73303	1042.50769	1601.85950	1466.24207	1149.49756	1554.91187	1335.48230	1163.36438	1554.92419	1409.57874	1185.07324	1393.69116	1412.92041	1220.50366	1081.45605	1401.34875	1064.76611	1316.15833	1403.50488	1020.95105	1150.97083	1316.41504	1245.97864	1218.06311	1561.55945	1101.09106	1351.74353	1623.50171	1134.44250	1152.77283	1631.56287	1151.35217	1029.79102	1632.60413	1161.33447	899.24683	1603.53784	1178.70740	778.76465	1654.61707	1199.93994	792.65540	1641.22839	1228.48804	710.53485	1245.03564	1120.80334	1339.91968	1171.71216	1092.81482	1122.10559	1162.69312	1052.18726	1017.57831	1175.71484	983.45526	901.24792	1224.78125	920.63165	833.40814	1181.75330	942.73029	809.65314	1202.36035	890.85388	759.59088	1518.62231	1041.68286	926.38580	1282.42810	1071.33533	911.56238	1490.89258	1210.55896	937.90570	1341.66638	1224.59607	942.68152	1585.81775	1019.53448	632.32947	1539.94373	947.86566	475.60645	1554.05847	929.02478	281.44250	1526.33875	875.72498	74.99912	1491.39551	906.26135	29.51573	1492.99170	724.11035	76.81405	1263.38025	1178.48730	625.25403	1307.00415	1209.87634	449.41730	1314.30493	1325.41528	290.87994	1372.57910	1438.94299	107.64697	1423.87292	1490.53308	93.95219	1389.13330	1314.74890	35.39105				1414.51758	1112.92529	1658.60974															 
28	0.270	1451.44324	1009.58655	1600.87280	1319.94434	1029.46814	1601.61328	1467.69727	1136.03149	1554.67419	1337.12598	1150.35779	1554.78894	1411.49207	1171.59229	1393.29614	1413.85315	1205.96289	1080.78345	1402.42358	1051.13354	1316.04382	1404.27405	1006.79932	1151.11267	1318.35828	1232.39478	1217.36719	1562.87451	1086.11682	1351.46069	1625.26428	1120.65466	1152.82153	1633.23047	1139.15149	1029.82861	1633.16162	1150.40259	899.25952	1602.99304	1171.17322	779.80487	1655.40247	1189.24915	792.86694	1639.65808	1225.65369	712.94794	1246.54126	1108.39087	1339.93713	1173.05518	1081.41907	1121.91992	1163.92773	1041.08411	1017.21570	1176.55688	972.29175	900.88605	1225.09509	908.88892	833.16730	1182.42004	931.67615	809.23059	1202.68164	880.04138	759.07977	1519.30688	1026.13611	926.70593	1283.12292	1056.98328	910.80536	1491.91382	1195.25061	937.96277	1342.79358	1209.63745	942.20709	1585.06982	1002.81970	632.92664	1539.41052	933.04327	475.69363	1552.20679	920.35095	279.17105	1524.18311	872.84637	72.67911	1489.90747	905.10541	28.86951	1489.00623	721.32660	68.22146	1263.82239	1164.60046	624.73029	1306.28992	1195.90247	448.53769	1313.57019	1315.89282	292.80945	1371.43835	1434.97668	113.39613	1422.95093	1486.84998	101.94036	1388.89429	1314.06494	35.25079				1412.79858	1100.00537	1659.03699															 
